<mxfile host="app.diagrams.net" modified="2023-10-17T16:53:51.208Z" agent="Mozilla/5.0 (Windows NT 10.0; Win64; x64) AppleWebKit/537.36 (KHTML, like Gecko) Chrome/118.0.0.0 Safari/537.36" etag="tQgvA9Cx1uwJwkGCKmHV" version="22.0.4" type="device">
  <diagram name="Página-1" id="K5-T6cy3eRS5XtoWPdn2">
    <mxGraphModel dx="1247" dy="659" grid="1" gridSize="10" guides="1" tooltips="1" connect="1" arrows="1" fold="1" page="1" pageScale="1" pageWidth="827" pageHeight="1169" math="0" shadow="0">
      <root>
        <mxCell id="0" />
        <mxCell id="1" parent="0" />
        <mxCell id="IEsQKHXjOzU2OjtEDUcf-1" value="" style="rounded=0;whiteSpace=wrap;html=1;" vertex="1" parent="1">
          <mxGeometry x="104" y="90" width="620" height="430" as="geometry" />
        </mxCell>
        <mxCell id="IEsQKHXjOzU2OjtEDUcf-10" value="" style="rounded=1;whiteSpace=wrap;html=1;" vertex="1" parent="1">
          <mxGeometry x="234" y="250" width="360" height="230" as="geometry" />
        </mxCell>
        <mxCell id="IEsQKHXjOzU2OjtEDUcf-17" value="PACIENTE 3" style="text;html=1;strokeColor=none;fillColor=none;align=center;verticalAlign=middle;whiteSpace=wrap;rounded=0;" vertex="1" parent="1">
          <mxGeometry x="329" y="130" width="170" height="30" as="geometry" />
        </mxCell>
        <mxCell id="IEsQKHXjOzU2OjtEDUcf-35" value="Status Medicação" style="text;html=1;strokeColor=none;fillColor=none;align=center;verticalAlign=middle;whiteSpace=wrap;rounded=0;" vertex="1" parent="1">
          <mxGeometry x="480" y="290" width="80" height="30" as="geometry" />
        </mxCell>
        <mxCell id="IEsQKHXjOzU2OjtEDUcf-41" value="Nome: João da Silva&lt;br&gt;Endereço: Rua Nascimento Silva nº 107&lt;br&gt;Telefone: (11) 99999-9999&lt;br&gt;Responsável 1: Maria&amp;nbsp; &amp;nbsp; &amp;nbsp; &amp;nbsp; &amp;nbsp; &amp;nbsp; &amp;nbsp; &amp;nbsp; &amp;nbsp; &amp;nbsp; &amp;nbsp;Telefone (11) 99999-0001&lt;br&gt;Responsável 2: José&amp;nbsp; &amp;nbsp; &amp;nbsp; &amp;nbsp; &amp;nbsp; &amp;nbsp; &amp;nbsp; &amp;nbsp; &amp;nbsp; &amp;nbsp; &amp;nbsp; Telefone (11) 99999-0003&amp;nbsp;&amp;nbsp;" style="text;html=1;strokeColor=none;fillColor=none;align=left;verticalAlign=middle;whiteSpace=wrap;rounded=0;" vertex="1" parent="1">
          <mxGeometry x="249" y="160" width="330" height="80" as="geometry" />
        </mxCell>
        <mxCell id="IEsQKHXjOzU2OjtEDUcf-42" value="Medicação" style="text;html=1;strokeColor=none;fillColor=none;align=center;verticalAlign=middle;whiteSpace=wrap;rounded=0;" vertex="1" parent="1">
          <mxGeometry x="249" y="290" width="60" height="30" as="geometry" />
        </mxCell>
        <mxCell id="IEsQKHXjOzU2OjtEDUcf-43" value="Data" style="text;html=1;strokeColor=none;fillColor=none;align=center;verticalAlign=middle;whiteSpace=wrap;rounded=0;" vertex="1" parent="1">
          <mxGeometry x="354" y="290" width="60" height="30" as="geometry" />
        </mxCell>
        <mxCell id="IEsQKHXjOzU2OjtEDUcf-44" value="Horário" style="text;html=1;strokeColor=none;fillColor=none;align=center;verticalAlign=middle;whiteSpace=wrap;rounded=0;" vertex="1" parent="1">
          <mxGeometry x="420" y="290" width="60" height="30" as="geometry" />
        </mxCell>
        <mxCell id="IEsQKHXjOzU2OjtEDUcf-45" value="Dipirona 500mg&amp;nbsp; &amp;nbsp; &amp;nbsp; &amp;nbsp; &amp;nbsp;20/09/23&amp;nbsp; &amp;nbsp; &amp;nbsp; &amp;nbsp;08:00&amp;nbsp;" style="rounded=1;whiteSpace=wrap;html=1;align=left;" vertex="1" parent="1">
          <mxGeometry x="249" y="320" width="301" height="20" as="geometry" />
        </mxCell>
        <mxCell id="IEsQKHXjOzU2OjtEDUcf-36" value="" style="ellipse;whiteSpace=wrap;html=1;aspect=fixed;fillColor=#60a917;fontColor=#ffffff;strokeColor=#2D7600;" vertex="1" parent="1">
          <mxGeometry x="512.5" y="322.5" width="15" height="15" as="geometry" />
        </mxCell>
        <mxCell id="IEsQKHXjOzU2OjtEDUcf-50" value="Fluoxetina 20mg&amp;nbsp; &amp;nbsp; &amp;nbsp; &amp;nbsp; 20/09/23&amp;nbsp; &amp;nbsp; &amp;nbsp; &amp;nbsp;10:00&amp;nbsp;" style="rounded=1;whiteSpace=wrap;html=1;align=left;" vertex="1" parent="1">
          <mxGeometry x="249" y="350" width="301" height="20" as="geometry" />
        </mxCell>
        <mxCell id="IEsQKHXjOzU2OjtEDUcf-51" value="" style="ellipse;whiteSpace=wrap;html=1;aspect=fixed;fillColor=#e51400;fontColor=#ffffff;strokeColor=#B20000;" vertex="1" parent="1">
          <mxGeometry x="512.5" y="352.5" width="15" height="15" as="geometry" />
        </mxCell>
        <mxCell id="IEsQKHXjOzU2OjtEDUcf-52" value="Dipirona 500mg&amp;nbsp; &amp;nbsp; &amp;nbsp; &amp;nbsp; &amp;nbsp;20/09/23&amp;nbsp; &amp;nbsp; &amp;nbsp; &amp;nbsp;16:00&amp;nbsp;" style="rounded=1;whiteSpace=wrap;html=1;align=left;" vertex="1" parent="1">
          <mxGeometry x="249" y="380" width="301" height="20" as="geometry" />
        </mxCell>
        <mxCell id="IEsQKHXjOzU2OjtEDUcf-53" value="" style="ellipse;whiteSpace=wrap;html=1;aspect=fixed;fillColor=#60a917;fontColor=#ffffff;strokeColor=#2D7600;" vertex="1" parent="1">
          <mxGeometry x="512.5" y="382.5" width="15" height="15" as="geometry" />
        </mxCell>
        <mxCell id="IEsQKHXjOzU2OjtEDUcf-57" value="Cadastrar nova medicação" style="rounded=1;whiteSpace=wrap;html=1;" vertex="1" parent="1">
          <mxGeometry x="308" y="420" width="211" height="30" as="geometry" />
        </mxCell>
      </root>
    </mxGraphModel>
  </diagram>
</mxfile>
